<svg width="16" height="17" viewBox="0 0 16 17" fill="none" xmlns="http://www.w3.org/2000/svg">
<g clip-path="url(#clip0)">
<path d="M8 0.130859C3.58172 0.130859 0 3.71258 0 8.13086C0 12.5491 3.58172 16.1309 8 16.1309C12.4183 16.1309 16 12.5491 16 8.13086C16 3.71258 12.4183 0.130859 8 0.130859ZM8 15.1309C4.134 15.1309 1 11.9969 1 8.13086C1 4.26486 4.134 1.13086 8 1.13086C11.866 1.13086 15 4.26486 15 8.13086C15 11.9969 11.866 15.1309 8 15.1309Z" fill="#777E90"/>
<path d="M9 3.13086H7C5.61928 3.13086 4.5 4.25014 4.5 5.63086H5.5C5.5 4.80242 6.17156 4.13086 7 4.13086H9C9.82844 4.13086 10.5 4.80242 10.5 5.63086C10.5 6.4593 9.82844 7.13086 9 7.13086H8C7.44772 7.13086 7 7.57858 7 8.13086V10.1309H8V8.13086H9C10.3807 8.13086 11.5 7.01158 11.5 5.63086C11.5 4.25014 10.3807 3.13086 9 3.13086Z" fill="#777E90"/>
<path d="M7.5 13.1309C8.05228 13.1309 8.5 12.6831 8.5 12.1309C8.5 11.5786 8.05228 11.1309 7.5 11.1309C6.94772 11.1309 6.5 11.5786 6.5 12.1309C6.5 12.6831 6.94772 13.1309 7.5 13.1309Z" fill="#777E90"/>
</g>
<defs>
<clipPath id="clip0">
<rect width="16" height="16" fill="white" transform="translate(0 0.130859)"/>
</clipPath>
</defs>
</svg>
