<svg width="946" height="250" viewBox="0 0 946 250" fill="none" xmlns="http://www.w3.org/2000/svg">
<path d="M336.093 141.393C336.093 144.159 336.194 146.172 336.377 147.454C336.56 148.715 337.028 149.772 337.801 150.606C338.553 151.44 339.753 152.009 341.36 152.335V170.05H306.337V152.335C307.903 152.009 309.103 151.42 309.897 150.565C310.71 149.711 311.219 148.654 311.422 147.413C311.625 146.172 311.727 144.159 311.727 141.393V92.6822C311.727 88.8992 311.422 86.2553 310.832 84.7502C310.222 83.2452 308.737 82.2486 306.337 81.7401V64.7169H348.072C356.329 64.7169 362.96 65.8558 367.963 68.1337C372.966 70.4116 376.607 74.0319 378.905 78.9741C381.183 83.9163 382.322 90.4653 382.322 98.621C382.322 108.302 381.346 115.929 379.413 121.461C377.481 126.993 374.044 131.04 369.142 133.603C364.241 136.166 357.204 137.447 348.072 137.447H336.093V141.393ZM336.093 114.749H345.225C348.601 114.749 351.184 114.404 353.014 113.712C354.845 113.021 356.167 111.699 357 109.766C357.834 107.834 358.241 105.007 358.241 101.326C358.241 95.8347 357.326 92.0924 355.475 90.1196C353.624 88.1264 350.268 87.1501 345.367 87.1501H336.093V114.749Z" fill="#35DFB1"/>
<path d="M393.67 100.146C393.67 95.1635 393.772 91.2382 393.976 88.3705C394.179 85.5027 394.687 82.7571 395.46 80.0927C396.253 77.4487 397.514 75.0081 399.263 72.7912C402.07 69.1913 405.935 66.588 410.816 65.0016C415.697 63.4152 421.798 62.622 429.08 62.622C436.279 62.622 442.279 63.4152 447.1 65.0016C451.92 66.588 455.784 69.1913 458.692 72.7912C461.133 75.8827 462.679 79.4419 463.33 83.4486C463.98 87.4552 464.306 93.028 464.306 100.126V134.6C464.306 141.698 463.98 147.271 463.33 151.277C462.679 155.284 461.133 158.843 458.692 161.935C455.825 165.494 451.981 168.077 447.14 169.724C442.3 171.372 436.279 172.185 429.08 172.185C421.798 172.185 415.697 171.372 410.816 169.724C405.914 168.097 402.07 165.494 399.263 161.935C397.555 159.758 396.294 157.358 395.501 154.694C394.687 152.05 394.179 149.284 393.976 146.416C393.772 143.549 393.67 139.603 393.67 134.579V100.146ZM417.914 99.3125V135.454C417.914 140.844 418.768 144.789 420.476 147.25C422.185 149.711 425.073 150.952 429.12 150.952C433.188 150.952 436.035 149.711 437.662 147.21C439.31 144.708 440.123 140.803 440.123 135.434V99.3125C440.123 94.0042 439.31 90.0992 437.703 87.6179C436.096 85.1367 433.229 83.8757 429.12 83.8757C425.012 83.8757 422.124 85.1163 420.436 87.5773C418.748 90.0382 417.914 93.9635 417.914 99.3125Z" fill="#35DFB1"/>
<path d="M550.094 170.05H478.95V152.335C480.516 152.009 481.716 151.42 482.509 150.565C483.322 149.711 483.831 148.654 484.034 147.413C484.238 146.172 484.339 144.159 484.339 141.393V92.6822C484.339 88.8992 484.034 86.2553 483.444 84.7502C482.834 83.2452 481.35 82.2486 478.95 81.7401V64.7169H513.972V81.7401C512.366 82.0655 511.186 82.6554 510.434 83.5096C509.681 84.3638 509.213 85.4417 509.01 86.723C508.807 88.0247 508.705 89.9975 508.705 92.6822V150.057H516.657C520.257 150.057 522.942 149.508 524.711 148.43C526.481 147.352 527.64 145.704 528.169 143.488C528.698 141.271 528.962 138.098 528.962 133.929V122.295H550.073V170.05H550.094Z" fill="#35DFB1"/>
<path d="M590.384 141.393C590.384 144.159 590.485 146.172 590.668 147.454C590.851 148.715 591.319 149.772 592.092 150.606C592.845 151.44 594.044 152.009 595.651 152.335V170.05H560.628V152.335C562.194 152.009 563.394 151.42 564.188 150.565C565.001 149.711 565.51 148.654 565.713 147.413C565.916 146.172 566.018 144.159 566.018 141.393V92.6822C566.018 88.8992 565.713 86.2553 565.123 84.7502C564.513 83.2452 563.028 82.2486 560.628 81.7401V64.7169H602.017C613.915 64.7169 622.681 67.0965 628.315 71.8353C633.949 76.5945 636.755 84.3434 636.755 95.0821C636.755 101.631 635.393 106.98 632.667 111.109C629.942 115.238 625.976 118.024 620.769 119.448C625.854 120.607 629.352 122.397 631.284 124.837C633.216 127.278 634.193 131 634.193 135.983V141.657C634.193 145.257 634.477 147.82 635.067 149.365C635.637 150.911 636.877 151.887 638.769 152.314V170.029H612.674C611.698 167.955 611.108 165.799 610.885 163.562C610.661 161.324 610.539 158.335 610.539 154.592V141.088C610.539 137.711 610.193 135.108 609.542 133.237C608.871 131.366 607.651 130.044 605.881 129.251C604.112 128.457 601.468 128.071 597.949 128.071H590.404V141.393H590.384ZM590.384 109.563H599.943C604.376 109.563 607.631 108.587 609.705 106.614C611.78 104.662 612.817 101.509 612.817 97.1567C612.817 92.7636 611.78 89.5501 609.746 87.4959C607.692 85.4417 604.519 84.4248 600.227 84.4248H590.404V109.563H590.384Z" fill="#35DFB1"/>
<path d="M648.653 170.05V152.335C650.545 151.786 651.907 150.687 652.741 149.04C653.575 147.413 654.328 144.81 655.019 141.25L669.907 64.6965H706.109L722.502 142.979C723.092 145.928 723.824 148.104 724.678 149.487C725.533 150.87 726.834 151.826 728.583 152.335V170.05H692.727V152.335C694.476 152.192 695.798 151.664 696.672 150.748C697.547 149.833 697.994 148.694 697.994 147.352C697.994 146.518 697.893 145.481 697.71 144.24L696.815 139.888H676.476L675.581 143.833C675.398 145.135 675.297 146.213 675.297 147.088C675.297 148.796 675.764 150.077 676.68 150.972C677.595 151.847 679.039 152.315 680.971 152.355V170.07H648.653V170.05ZM679.1 124.858H693.418L686.218 84.5672L679.1 124.858Z" fill="#35DFB1"/>
<path d="M766.881 141.393C766.881 144.159 766.962 146.172 767.166 147.454C767.349 148.715 767.817 149.772 768.589 150.606C769.362 151.44 770.542 152.009 772.149 152.335V170.05H737.126V152.335C738.692 152.009 739.892 151.42 740.685 150.565C741.499 149.711 742.007 148.654 742.211 147.413C742.414 146.172 742.516 144.159 742.516 141.393V92.6822C742.516 88.8992 742.211 86.2553 741.621 84.7502C741.031 83.2452 739.526 82.2486 737.126 81.7401V64.7169H778.515C790.413 64.7169 799.178 67.0965 804.812 71.8353C810.446 76.5945 813.252 84.3434 813.252 95.0821C813.252 101.631 811.89 106.98 809.165 111.109C806.439 115.238 802.473 118.024 797.267 119.448C802.351 120.607 805.849 122.397 807.782 124.837C809.714 127.278 810.69 131 810.69 135.983V141.657C810.69 145.257 810.975 147.82 811.544 149.365C812.114 150.911 813.354 151.887 815.246 152.314V170.029H789.152C788.175 167.955 787.585 165.799 787.362 163.562C787.138 161.324 787.016 158.335 787.016 154.592V141.088C787.016 137.711 786.67 135.108 786.019 133.237C785.348 131.366 784.128 130.044 782.359 129.251C780.589 128.457 777.945 128.071 774.427 128.071H766.881V141.393ZM766.881 109.563H776.44C780.874 109.563 784.128 108.587 786.202 106.614C788.277 104.662 789.314 101.509 789.314 97.1567C789.314 92.7636 788.297 89.5501 786.243 87.4959C784.189 85.4417 781.016 84.4248 776.725 84.4248H766.901V109.563H766.881Z" fill="#35DFB1"/>
<path d="M828.954 170.05V152.335C830.52 152.009 831.72 151.42 832.513 150.565C833.326 149.711 833.835 148.654 834.038 147.413C834.242 146.172 834.343 144.159 834.343 141.393V92.6822C834.343 88.8992 834.038 86.2553 833.448 84.7502C832.859 83.2452 831.354 82.2486 828.954 81.7401V64.7169H903.148V96.8923H880.308V95.794C880.308 91.6449 879.393 88.7772 877.542 87.2112C875.691 85.6451 872.417 84.8519 867.719 84.8519H858.729V106.858H887.528V124.573H858.729V149.915H869.386C873.637 149.915 876.505 149.081 878.03 147.393C879.556 145.704 880.308 142.776 880.308 138.566V134.762H903.148V170.07H828.954V170.05Z" fill="#35DFB1"/>
<path d="M266.494 96.0991L250.142 112.451L224.394 138.2H178.571L178.551 111.15L182.619 107.082V111.129H213.187L228.218 96.0991L202.144 70.0252H165.026V79.1165H165.006V104.438L165.026 159.291L165.006 159.311L164.335 159.982H165.006L165.026 197.588L151.481 211.113L36.4668 96.0991L89.6111 42.9548H124.39V65.9575H128.458L124.39 70.0252H100.818L74.7437 96.0991L137.935 159.291V159.982H138.627L137.935 159.291V42.9548L142.003 38.8871V42.9548H213.35L266.494 96.0991Z" fill="#3E2E68"/>
<path d="M270.562 92.0314L254.21 108.383L228.462 134.132H182.639L182.619 107.082L217.255 107.061L232.285 92.0314L206.212 65.9575H169.094V75.0488H169.074V100.37L169.094 155.223L169.074 155.243L168.402 155.914H169.074L169.094 193.52L155.549 207.045L40.5347 92.0314L93.679 38.8871H128.458V65.9575H104.885L78.8116 92.0314L142.003 155.223V155.914H142.695L142.003 155.223V38.8871H217.418L270.562 92.0314Z" fill="url(#paint0_linear)"/>
<defs>
<linearGradient id="paint0_linear" x1="233.764" y1="-11.0019" x2="62.1677" y2="215.042" gradientUnits="userSpaceOnUse">
<stop offset="0.1423" stop-color="#02E879"/>
<stop offset="0.334" stop-color="#279EA5"/>
<stop offset="0.5205" stop-color="#475CCC"/>
<stop offset="0.6552" stop-color="#5B34E4"/>
<stop offset="0.7247" stop-color="#6324ED"/>
</linearGradient>
</defs>
</svg>
