<svg width="22" height="22" viewBox="0 0 22 22" fill="none" xmlns="http://www.w3.org/2000/svg">
<path d="M11 0.333496C10.2637 0.333496 9.66671 0.93045 9.66671 1.66683V9.66683H1.66671C0.930328 9.66683 0.333374 10.2638 0.333374 11.0002C0.333374 11.7365 0.930328 12.3335 1.66671 12.3335H9.66671V20.3335C9.66671 21.0699 10.2637 21.6668 11 21.6668C11.7364 21.6668 12.3334 21.0699 12.3334 20.3335V12.3335H20.3334C21.0698 12.3335 21.6667 11.7365 21.6667 11.0002C21.6667 10.2638 21.0698 9.66683 20.3334 9.66683H12.3334V1.66683C12.3334 0.93045 11.7364 0.333496 11 0.333496Z" fill="#777E90"/>
</svg>
